<?xml version="1.0" encoding="utf-8"?>
<!DOCTYPE svg PUBLIC "-//W3C//DTD SVG 1.0//EN" "http://www.w3.org/TR/2001/REC-SVG-20010904/DTD/svg10.dtd">
<svg version="1.0" xmlns="http://www.w3.org/2000/svg" width="2560px" height="1440px" viewBox="0 0 2560 1440" preserveAspectRatio="xMidYMid meet">
 <g fill="#272d2d">
  <path d="M0 720 l0 -720 609.5 0 c591.2 0 609.5 0.1 609.5 1.8 0 1.5 -107.4 114.2 -175.4 184.2 -5.6 5.8 -28.2 29.2 -50.2 52 -23.2 24.1 -41.1 42 -42.9 42.7 -1.6 0.7 -57.2 12.5 -123.5 26.2 l-120.5 24.9 -4.5 5 c-4 4.3 -224.4 321.4 -225.5 324.5 -0.4 0.8 6.6 3.2 22.2 7.5 12.5 3.4 22.9 6.5 23.2 6.7 0.2 0.3 0.6 2.9 0.8 5.8 l0.3 5.2 -21.5 24 c-11.9 13.2 -21.9 24.6 -22.2 25.2 -0.3 0.7 36.7 86.5 82.2 190.7 78.8 180.5 82.7 189.7 82.1 193.8 -0.7 3.9 -13.7 20 -131 161.8 l-130.2 157.5 -191.2 0.3 -191.2 0.2 0 -720z m584.6 290.8 c-0.7 -1.8 -27.7 -63.7 -60 -137.6 -32.2 -73.8 -58.6 -135.1 -58.6 -136.1 0 -6.2 1.7 -8.7 21 -30.4 10.9 -12.2 19.5 -22.5 19.2 -22.8 -0.4 -0.3 -10.3 -3.2 -22.1 -6.5 -18.8 -5.1 -21.4 -6.1 -22.2 -8.2 -2.7 -7 -5.9 -2 82.7 -129.9 46 -66.5 84.1 -121.4 84.7 -122 0.5 -0.7 0.7 -1.3 0.4 -1.3 -0.2 0 -8.3 8.7 -17.8 19.2 -9.6 10.6 -20.6 22.7 -24.5 26.8 -3.9 4.1 -26.8 29.1 -50.9 55.5 -24 26.4 -48.1 52.7 -53.4 58.5 -5.3 5.8 -27 29.4 -48 52.5 -21.1 23.1 -40.1 43.8 -42.2 46 l-3.9 4.1 9.1 15.4 c5 8.5 10.2 17.4 11.5 19.6 1.3 2.3 27.6 47.3 58.5 100 30.9 52.8 57 97.5 58.1 99.4 11.1 19.3 59.1 101 59.4 101 0.2 0 -0.2 -1.5 -1 -3.2z"/>
  <path d="M952 1419.1 c0 -2 21.5 -37.4 76.1 -125.2 41.8 -67.3 76.5 -123.1 77 -124 0.6 -1.1 -7.4 -50.1 -23.6 -144.9 -13.5 -78.8 -24.5 -145 -24.5 -147.1 0 -3.7 0.1 -3.9 3.3 -3.9 l3.2 0 57.8 153.8 c40.2 107 57.8 154.7 57.5 156.8 -0.2 2.4 -21.6 25.9 -109.8 120.2 -107.6 115.2 -109.6 117.2 -113.2 117.2 -3.5 0 -3.8 -0.2 -3.8 -2.9z"/>
 </g>
 <g fill="#429ea6">
  <path d="M378.2 1438.2 c0.7 -1 59.8 -72.6 131.3 -159.1 71.5 -86.5 130 -158 130 -159 0 -0.9 0.3 -1.8 0.6 -2.1 0.5 -0.4 -32.9 -77.3 -161.7 -372.1 l-4.7 -10.7 22.9 -25.7 c18 -20.3 22.9 -26.3 22.7 -28.3 -0.1 -1.3 -0.4 -2.6 -0.5 -2.8 -0.2 -0.2 -11.3 -3.4 -24.7 -7.1 -13.3 -3.7 -24.3 -7 -24.4 -7.3 -0.4 -1.1 224.9 -325.4 229.3 -330.2 l4.5 -5 120.5 -24.9 c66.3 -13.7 121.9 -25.5 123.5 -26.2 1.8 -0.7 19.8 -18.7 43.4 -43.2 22.3 -23.1 41.9 -43.5 43.7 -45.3 1.7 -1.8 43.4 -45.1 92.5 -96.2 l89.4 -93 208.3 0 208.2 0 0 2.2 c0 3.4 -130.1 462.2 -131.1 462.6 -0.5 0.2 -0.9 0.9 -1 1.5 0 0.7 -99.7 83.5 -221.5 184.2 -121.9 100.7 -222 183.6 -222.6 184.2 -0.7 0.9 -0.7 2.6 0.1 5.7 0.6 2.5 29.5 79.9 64.1 172.1 56.1 149 63.1 168.2 62.8 172.5 l-0.3 4.8 -116.9 125.1 -116.9 125.1 -286.4 0 c-277.1 0 -286.4 -0.1 -285.1 -1.8z m688 -136.7 c60.1 -64.3 109.2 -117.5 109.2 -118.1 -0.3 -2.4 -114.9 -306.4 -115.1 -305.2 -0.2 0.7 10.9 66.3 24.5 145.8 21.7 126.4 24.7 144.9 23.7 147.5 -0.7 1.7 -35.5 58 -77.3 125.3 -41.9 67.3 -75.7 122.2 -75.2 122 0.5 -0.2 50.1 -52.9 110.2 -117.3z"/>
  <path d="M609 1062.4 c-1.4 -2.7 -2.7 -5.1 -3 -5.4 -0.4 -0.3 -2.4 -3.4 -4.5 -6.9 -2.5 -4.2 -3.4 -6.6 -2.7 -6.9 1.7 -0.5 1.5 -2.2 -0.3 -2.2 -1 0 -1.5 -1.1 -1.5 -3.5 0 -2.3 -0.5 -3.5 -1.4 -3.5 -1.7 0 -2.6 -2.2 -2.6 -6.1 0 -1.9 -0.5 -2.9 -1.5 -2.9 -1 0 -1.5 -1.1 -1.5 -3.5 0 -2.3 -0.5 -3.5 -1.4 -3.5 -1.4 0 -2.6 -2.1 -2.6 -4.7 0 -0.8 -0.7 -2.1 -1.5 -2.9 -0.8 -0.9 -1.5 -3.1 -1.5 -5 0 -2.2 -0.5 -3.4 -1.4 -3.4 -1.4 0 -2.6 -2.1 -2.6 -4.7 0 -0.8 -0.7 -2.1 -1.5 -2.9 -0.8 -0.9 -1.5 -3.1 -1.5 -5 0 -2.2 -0.5 -3.4 -1.4 -3.4 -1.4 0 -2.6 -2.1 -2.6 -4.7 0 -0.8 -0.7 -2.1 -1.5 -2.9 -0.8 -0.9 -1.5 -3.1 -1.5 -5 0 -2.4 -0.5 -3.4 -1.5 -3.4 -1 0 -1.5 -1.1 -1.5 -3.5 0 -2.3 -0.5 -3.5 -1.4 -3.5 -1.4 0 -2.6 -2.1 -2.6 -4.7 0 -0.8 -0.7 -2.1 -1.5 -2.9 -0.8 -0.9 -1.5 -3.1 -1.5 -5 0 -2.2 -0.5 -3.4 -1.4 -3.4 -1.4 0 -2.6 -2.1 -2.6 -4.7 0 -0.8 -0.7 -2.1 -1.5 -2.9 -0.8 -0.9 -1.5 -3.1 -1.5 -5 0 -2.2 -0.5 -3.4 -1.4 -3.4 -1.4 0 -2.6 -2.1 -2.6 -4.7 0 -0.8 -0.7 -2.1 -1.5 -2.9 -0.8 -0.9 -1.5 -3.1 -1.5 -5 0 -2.4 -0.5 -3.4 -1.5 -3.4 -1 0 -1.5 -1.1 -1.5 -3.5 0 -2.3 -0.5 -3.5 -1.4 -3.5 -1.7 0 -2.6 -2.2 -2.6 -6.1 0 -1.9 -0.5 -2.9 -1.5 -2.9 -1 0 -1.5 -1.1 -1.5 -3.5 0 -2.3 -0.5 -3.5 -1.4 -3.5 -1.4 0 -2.6 -2.1 -2.6 -4.7 0 -0.8 -0.7 -2.1 -1.5 -2.9 -0.8 -0.9 -1.5 -3.1 -1.5 -5 0 -2.2 -0.5 -3.4 -1.4 -3.4 -1.4 0 -2.6 -2.1 -2.6 -4.7 0 -0.8 -0.7 -2.1 -1.5 -2.9 -0.8 -0.9 -1.5 -3.1 -1.5 -5 0 -2.2 -0.5 -3.4 -1.4 -3.4 -1.4 0 -2.6 -2.1 -2.6 -4.7 0 -0.8 -0.7 -2.1 -1.5 -2.9 -0.8 -0.9 -1.5 -3.1 -1.5 -5 0 -2.4 -0.5 -3.4 -1.5 -3.4 -1 0 -1.5 -1.1 -1.5 -3.5 0 -2.3 -0.5 -3.5 -1.4 -3.5 -1.4 0 -2.6 -2.1 -2.6 -4.7 0 -0.8 -0.7 -2.1 -1.5 -2.9 -0.8 -0.9 -1.5 -3.1 -1.5 -5 0 -2.2 -0.5 -3.4 -1.4 -3.4 -1.4 0 -2.6 -2.1 -2.6 -4.7 0 -0.8 -0.7 -2.1 -1.5 -2.9 -0.8 -0.9 -1.5 -3.1 -1.5 -5 0 -2.2 -0.5 -3.4 -1.4 -3.4 -1.4 0 -2.6 -2.1 -2.6 -4.7 0 -0.8 -0.7 -2.1 -1.5 -2.9 -0.8 -0.9 -1.5 -3.1 -1.5 -5 0 -2.4 -0.5 -3.4 -1.5 -3.4 -1 0 -1.5 -1.1 -1.5 -3.5 0 -2.3 -0.5 -3.5 -1.4 -3.5 -1.7 0 -2.6 -2.2 -2.6 -6.1 0 -1.9 -0.5 -2.9 -1.5 -2.9 -1 0 -1.5 -1.1 -1.5 -3.5 0 -2.3 -0.5 -3.5 -1.4 -3.5 -1.4 0 -2.6 -2.1 -2.6 -4.7 0 -0.8 -0.7 -2.1 -1.5 -2.9 -0.8 -0.9 -1.5 -3.1 -1.5 -5 0 -2.2 -0.5 -3.4 -1.4 -3.4 -1.4 0 -2.6 -2.1 -2.6 -4.7 0 -0.8 -0.7 -2.1 -1.5 -2.9 -1.8 -1.9 -2.1 -12.4 -0.3 -14.2 0.7 -0.7 2.5 -1.2 4 -1.2 2.5 0 2.8 -0.4 2.8 -3.3 0 -4 1.5 -5.7 5.2 -5.7 2.5 0 2.8 -0.4 2.8 -3.3 0 -4 1.5 -5.7 5.2 -5.7 2.5 0 2.8 -0.4 2.8 -3.3 0 -4 1.5 -5.7 5.2 -5.7 2.5 0 2.8 -0.4 2.8 -3.3 0 -4.1 1.5 -5.7 5.3 -5.7 l3 0 -0.7 -5.6 -0.6 -5.6 3.7 0.7 c2.1 0.3 4.2 1 4.6 1.4 0.4 0.4 -9.2 11.9 -21.3 25.6 -12.1 13.7 -21.9 25.4 -21.6 26.1 0.2 0.6 0.1 1.5 -0.4 2 -0.4 0.5 31.3 74.5 70.6 164.4 39.3 89.9 71.3 164.4 71.2 165.4 -0.2 1.4 -1 0.6 -2.8 -3z"/>
  <path d="M465 656.6 c0 -2 0.5 -3.6 1 -3.6 0.6 0 1 -0.7 1 -1.5 0 -0.8 0.5 -1.5 1 -1.5 0.6 0 1 -0.7 1 -1.5 0 -0.9 0.9 -1.5 2.5 -1.5 2.2 0 2.5 -0.4 2.5 -3.5 0 -1.9 0.5 -3.5 1 -3.5 0.6 0 1 -0.7 1 -1.5 0 -0.8 0.5 -1.5 1 -1.5 0.6 0 1 -0.7 1 -1.5 0 -0.8 0.5 -1.5 1 -1.5 0.6 0 1 -0.7 1 -1.5 0 -0.8 0.7 -1.5 1.5 -1.5 0.8 0 1.5 -0.9 1.5 -2 0 -1.1 0.5 -2 1 -2 0.6 0 1 -0.7 1 -1.5 0 -0.8 0.5 -1.5 1 -1.5 0.6 0 1 -0.7 1 -1.5 0 -0.9 0.9 -1.5 2.5 -1.5 2.2 0 2.5 -0.4 2.5 -3.5 0 -1.9 0.5 -3.5 1 -3.5 0.6 0 1 -0.7 1 -1.5 0 -1 1 -1.5 3.1 -1.5 l3.1 0 -4.4 6.3 c-2.5 3.4 -10 14.2 -16.7 23.9 -6.7 9.8 -12.7 18 -13.2 18.3 -0.5 0.4 -0.9 -1 -0.9 -2.9z"/>
  <path d="M501 604.6 c0 -2 0.5 -3.6 1 -3.6 0.6 0 1 -0.7 1 -1.5 0 -1 1 -1.5 3 -1.5 l3.1 0 -3.1 4.4 c-4.1 6 -5 6.4 -5 2.2z"/>
  <path d="M510 591.6 c0 -2 0.5 -3.6 1 -3.6 0.6 0 1 -0.7 1 -1.5 0 -1 1 -1.5 3 -1.5 l3.1 0 -3.1 4.4 c-4.1 6 -5 6.4 -5 2.2z"/>
  <path d="M519 578.6 c0 -2 0.5 -3.6 1 -3.6 0.6 0 1 -0.7 1 -1.5 0 -1 1 -1.5 3 -1.5 l3.1 0 -3.1 4.4 c-4.1 6 -5 6.4 -5 2.2z"/>
  <path d="M528 565.6 c0 -2 0.5 -3.6 1 -3.6 0.6 0 1 -0.7 1 -1.5 0 -1 1 -1.5 3 -1.5 l3.1 0 -3.1 4.4 c-4.1 6 -5 6.4 -5 2.2z"/>
  <path d="M537 552.6 c0 -2 0.5 -3.6 1 -3.6 0.6 0 1 -0.7 1 -1.5 0 -0.9 0.9 -1.5 2.5 -1.5 2.2 0 2.5 -0.4 2.5 -3.5 0 -1.9 0.5 -3.5 1 -3.5 0.6 0 1 -0.7 1 -1.5 0 -0.8 0.5 -1.5 1 -1.5 0.6 0 1 -0.7 1 -1.5 0 -0.9 0.9 -1.5 2.5 -1.5 2.2 0 2.5 -0.4 2.5 -3.5 0 -1.9 0.5 -3.5 1 -3.5 0.6 0 1 -0.7 1 -1.5 0 -0.8 0.5 -1.5 1 -1.5 0.6 0 1 -0.7 1 -1.5 0 -0.9 0.9 -1.5 2.5 -1.5 2.2 0 2.5 -0.4 2.5 -3.5 0 -1.9 0.5 -3.5 1 -3.5 0.6 0 1 -0.7 1 -1.5 0 -0.8 0.5 -1.5 1 -1.5 0.6 0 1 -0.7 1 -1.5 0 -0.9 0.9 -1.5 2.5 -1.5 2.2 0 2.5 -0.4 2.5 -3.5 0 -1.9 0.5 -3.5 1 -3.5 0.6 0 1 -0.7 1 -1.5 0 -0.8 0.5 -1.5 1 -1.5 0.6 0 1 -0.7 1 -1.5 0 -0.9 0.9 -1.5 2.5 -1.5 2.2 0 2.5 -0.4 2.5 -3.5 0 -1.9 0.5 -3.5 1 -3.5 0.6 0 1 -0.7 1 -1.5 0 -1 1 -1.5 3.1 -1.5 l3.1 0 -4.4 6.3 c-2.5 3.4 -13.6 19.3 -24.7 35.4 -11.1 16.1 -20.6 29.5 -21.1 29.8 -0.6 0.4 -1 -0.9 -1 -2.9z"/>
  <path d="M589 477.6 c0 -2 0.5 -3.6 1 -3.6 0.6 0 1 -0.7 1 -1.5 0 -1 1 -1.5 3 -1.5 l3.1 0 -3.1 4.4 c-4.1 6 -5 6.4 -5 2.2z"/>
  <path d="M598 464.6 c0 -2 0.5 -3.6 1 -3.6 0.6 0 1 -0.7 1 -1.5 0 -1 1 -1.5 3 -1.5 l3.1 0 -3.1 4.4 c-4.1 6 -5 6.4 -5 2.2z"/>
  <path d="M607 451.6 c0 -2 0.5 -3.6 1 -3.6 0.6 0 1 -0.7 1 -1.5 0 -1 1 -1.5 3 -1.5 l3.1 0 -3.1 4.4 c-4.1 6 -5 6.4 -5 2.2z"/>
  <path d="M616 438.6 c0 -2 0.5 -3.6 1 -3.6 0.6 0 1 -0.7 1 -1.5 0 -0.9 0.9 -1.5 2.5 -1.5 2.2 0 2.5 -0.4 2.5 -3.5 0 -1.9 0.5 -3.5 1 -3.5 0.6 0 1 -0.7 1 -1.5 0 -0.8 0.5 -1.5 1 -1.5 0.6 0 1 -0.7 1 -1.5 0 -0.9 0.9 -1.5 2.5 -1.5 2.2 0 2.5 -0.4 2.5 -3.5 0 -1.9 0.5 -3.5 1 -3.5 0.6 0 1 -0.7 1 -1.5 0 -0.8 0.5 -1.5 1 -1.5 0.6 0 1 -0.7 1 -1.5 0 -0.9 0.9 -1.5 2.5 -1.5 2.1 0 2.5 -0.5 2.5 -2.9 0 -1.6 -0.5 -3.1 -1.1 -3.3 -0.6 -0.2 0.8 -2.4 3 -4.8 2.2 -2.5 4 -3.9 4.1 -3.2 0 0.6 0.7 1.2 1.5 1.2 1 0 1.5 -1 1.5 -2.8 0 -3.1 6.5 -11.6 8.1 -10.6 0.5 0.3 0.9 -0.2 0.9 -1 0 -0.8 1.2 -2.4 2.6 -3.5 1.5 -1.2 2.3 -2.1 1.9 -2.1 -0.4 0 -0.2 -0.7 0.5 -1.5 0.7 -0.8 1.8 -1.5 2.4 -1.5 0.6 0 0.4 0.5 -0.4 1 -0.8 0.5 -1.5 1.3 -1.5 1.8 0 1.1 -46.2 67.9 -47.5 68.7 -0.6 0.4 -1 -0.9 -1 -2.9z"/>
 </g>
 <g fill="#b37ba4">
  <path d="M1431.2 1436.8 c0.2 -1.9 31.6 -60.1 73.1 -135.7 40 -72.7 72.7 -132.8 72.7 -133.5 0 -0.6 -15.8 -70.2 -35.1 -154.6 -37.8 -165.2 -37 -161 -31.8 -165.4 1.4 -1.2 96.8 -80.6 212.2 -176.5 115.4 -95.8 210 -174.8 210.2 -175.5 0.5 -1.3 52.5 -491.2 52.5 -493.8 0 -1.7 10.3 -1.8 203 -1.8 l203 0 0 3.4 c0 5.1 -74.8 614.7 -75.8 617.6 -0.5 1.4 -49.4 72.9 -108.6 159 -59.3 86.1 -108.1 157.1 -108.4 157.8 -0.2 0.8 9.2 59.8 20.9 131.3 20.6 125.1 21.5 129.9 23.5 129.9 3.1 0 4.7 2.4 4.2 6.2 -0.3 2.4 -23.5 36.8 -80.2 119.1 l-79.9 115.7 -277.9 0 -278 0 0.4 -3.2z"/>
 </g>
 <g fill="#e5f9e0">
  <path d="M950.6 1432.7 c3.8 -4 57 -60.9 118.3 -126.5 70.6 -75.6 111.5 -120.1 111.7 -121.5 0.1 -1.2 -28.2 -77.6 -62.8 -169.7 -35.5 -94.3 -63.6 -170.7 -64.5 -174.8 -1.4 -6.6 -1.4 -7.4 0.1 -8.5 10.2 -7.7 444.5 -367.5 444.5 -368.4 0.1 -0.6 0.5 -1.3 1 -1.5 0.5 -0.1 30.3 -104.1 66.2 -231 l65.3 -230.8 179.3 0 179.3 0 -0.5 2.8 c-0.3 1.5 -12.2 113.4 -26.5 248.7 -14.4 135.3 -26.3 246.5 -26.5 247.1 -0.2 0.7 -95.8 80.5 -212.5 177.5 -127.4 105.8 -211.9 176.7 -211.6 177.5 0.3 0.7 0 1.4 -0.6 1.6 -0.8 0.3 10.7 52.5 34 154.4 19.3 84.6 35.4 155.3 35.8 157 0.5 2.7 -8.6 19.7 -73.6 138.2 l-74.2 135.2 -244.6 0 -244.5 0 6.9 -7.3z"/>
 </g>
 <g fill="#eb5160">
  <path d="M1983.3 1437.8 c0.8 -1.3 37.3 -54.2 81 -117.7 81.5 -118.1 81.9 -118.8 75.4 -117.9 -2 0.3 -3 -5.7 -24 -132.8 l-21.9 -133 108.6 -157.7 c59.7 -86.8 108.7 -158.3 108.9 -159 0.1 -0.6 0.5 -1.4 0.8 -1.7 0.3 -0.3 17.6 -139.4 38.5 -309.2 l37.9 -308.8 85.7 0 85.8 0 0 720 0 720 -289.1 0 -289.1 0 1.5 -2.2z"/>
  <path d="M606.1 1057.6 c-8.7 -14.8 -79.8 -136.3 -82.5 -140.9 -1.3 -2.3 -27.6 -47.3 -58.5 -100.1 -30.9 -52.7 -57.2 -97.7 -58.5 -100 -1.3 -2.2 -6.7 -11.5 -12 -20.5 -5.4 -9 -9.6 -17.1 -9.4 -18.1 0.2 -0.9 21.4 -24.8 47.3 -53 25.9 -28.1 49.7 -54.2 53 -57.8 8.6 -9.6 90 -98.7 101.6 -111.2 5.3 -5.8 17.5 -19.1 27 -29.5 33.5 -36.7 48.3 -52.5 49.2 -52.5 0.6 0 0.5 0.5 0 1.2 -1 1.2 -165.3 238.3 -188.6 272.1 -14.6 21.2 -15.3 19.4 11.4 26.9 11.2 3.2 22.1 6.3 24.3 6.9 l3.8 1 -2.4 2.7 c-20.1 21.9 -42.6 48.2 -41.7 48.8 0.8 0.4 0.7 0.9 -0.2 1.4 -0.9 0.6 17.6 43.9 70.5 165.1 39.4 90.3 71.6 164.8 71.4 165.4 -0.2 0.7 -2.7 -2.9 -5.7 -7.9z"/>
 </g>
</svg>